<svg width="84" height="84" viewBox="0 0 84 84" fill="none" xmlns="http://www.w3.org/2000/svg">
<path id="Vector" d="M69.9489 83.9687H13.257C5.95049 83.9687 0 78.0184 0 70.696V13.9368C0 6.62161 5.94327 0.664062 13.257 0.664062H69.9489C77.2554 0.664062 83.2059 6.61439 83.2059 13.9368V70.696C83.2059 78.0112 77.2626 83.9687 69.9489 83.9687ZM13.257 2.11554C6.74389 2.11554 1.44254 7.42318 1.44254 13.944V70.7032C1.44254 77.2241 6.74389 82.5317 13.257 82.5317H69.9489C76.462 82.5317 81.7633 77.2241 81.7633 70.7032V13.944C81.7633 7.42318 76.462 2.11554 69.9489 2.11554H13.257Z" fill="#B2CCCC"/>
</svg>
