<svg width="16" height="17" viewBox="0 0 16 17" fill="none" xmlns="http://www.w3.org/2000/svg">
<g id="social/google">
<g clip-path="url(#clip0_1_37197)">
<rect y="0.5" width="16" height="16" rx="8" fill="white"/>
<path id="Subtract" d="M0 0.5H16V16.5H0V0.5Z" fill="white"/>
<path id="outline" fill-rule="evenodd" clip-rule="evenodd" d="M8 16.1C12.1974 16.1 15.6 12.6974 15.6 8.5C15.6 4.30264 12.1974 0.9 8 0.9C3.80264 0.9 0.4 4.30264 0.4 8.5C0.4 12.6974 3.80264 16.1 8 16.1ZM8 16.5C12.4183 16.5 16 12.9183 16 8.5C16 4.08172 12.4183 0.5 8 0.5C3.58172 0.5 0 4.08172 0 8.5C0 12.9183 3.58172 16.5 8 16.5Z" fill="#F0F2EE"/>
<circle id="base" cx="8" cy="8.5" r="8" fill="white"/>
<g id="Vector">
<path d="M8.12246 5.32C9.27212 5.32 10.0476 5.80667 10.4898 6.21334L12.2177 4.56C11.1565 3.59333 9.77552 3 8.12246 3C5.72791 3 3.65988 4.34667 2.65308 6.30667L4.63267 7.81334C5.12927 6.36667 6.50341 5.32 8.12246 5.32Z" fill="#EA4335"/>
<path d="M14 9.13334C14 8.64001 13.9592 8.28001 13.8707 7.90667H8.12245V10.1333H11.4966C11.4286 10.6867 11.0612 11.52 10.2449 12.08L12.1769 13.5467C13.3333 12.5 14 10.96 14 9.13334Z" fill="#4285F4"/>
<path d="M4.63945 10.1867C4.5102 9.81333 4.43537 9.41333 4.43537 9C4.43537 8.58666 4.51022 8.18668 4.63267 7.81334L2.65308 6.30667C2.23811 7.12001 2 8.03333 2 9C2 9.96667 2.2381 10.88 2.65306 11.6933L4.63945 10.1867Z" fill="#FBBC05"/>
<path d="M8.12243 15C9.77549 15 11.1633 14.4667 12.1769 13.5467L10.2449 12.08C9.72789 12.4333 9.034 12.68 8.12243 12.68C6.50339 12.68 5.12925 11.6333 4.63945 10.1867L2.65985 11.6933C3.66665 13.6533 5.72788 15 8.12243 15Z" fill="#34A853"/>
</g>
</g>
</g>
<defs>
<clipPath id="clip0_1_37197">
<rect y="0.5" width="16" height="16" rx="8" fill="white"/>
</clipPath>
</defs>
</svg>
